<svg width="428" height="428" viewBox="0 0 428 428" fill="none" xmlns="http://www.w3.org/2000/svg">
<path d="M215.204 84C281.146 84.0001 335.617 133.097 344.063 196.73C386.62 220.501 411.186 246.552 405.712 266.982C400.166 287.677 365.041 297.953 315.291 296.963C291.445 325.698 255.463 344 215.204 344C150.938 344 97.5654 297.367 87.0749 236.094C42.8807 211.931 17.1698 185.223 22.7576 164.37C28.2595 143.837 62.8776 133.56 112.009 134.367C94.9366 156.367 84.7723 183.995 84.7722 213.997C84.7722 221.436 85.3982 228.73 86.5984 235.827C116.366 252.165 154.591 267.355 197.323 278.805C240.124 290.273 280.886 296.231 314.867 296.95C333.542 274.441 344.771 245.53 344.771 213.997C344.771 208.052 344.369 202.2 343.596 196.467C313.589 179.769 274.712 164.212 231.156 152.541C187.861 140.94 146.653 134.979 112.439 134.372C136.221 103.725 173.408 84 215.204 84ZM182.371 207.491C183.929 201.68 199.478 200.798 217.101 205.521C234.727 210.242 247.752 218.782 246.195 224.593C244.638 230.403 229.088 231.287 211.465 226.563C193.839 221.84 180.814 213.302 182.371 207.491Z" fill="white"/>
</svg>
