<svg width="196" height="196" viewBox="0 0 196 196" fill="none" xmlns="http://www.w3.org/2000/svg">
<g clip-path="url(#clip0_1074_6743)">
<path d="M144.649 126.743C139.782 126.743 135.402 125.863 131.508 124.104C127.665 122.293 124.617 119.81 122.363 116.654C120.16 113.446 119.059 109.875 119.059 105.943C119.059 101.855 120.16 98.2337 122.363 95.0775C124.566 91.9213 127.64 89.4636 131.585 87.7044C135.53 85.8934 140.038 84.988 145.11 84.988C150.079 84.988 154.408 85.7641 158.097 87.3163C161.837 88.8168 164.937 91.1193 167.396 94.2238V69H173.928V125.269H167.473V117.197C165.218 120.353 162.17 122.733 158.328 124.337C154.485 125.941 149.926 126.743 144.649 126.743ZM146.416 120.922C150.464 120.922 154.075 120.353 157.252 119.215C160.479 118.025 162.99 116.369 164.783 114.248C166.627 112.126 167.549 109.72 167.549 107.03V105.322C167.549 102.528 166.602 100.019 164.706 97.7939C162.862 95.569 160.275 93.8357 156.944 92.5939C153.614 91.3521 149.874 90.7312 145.725 90.7312C139.628 90.7312 134.812 92.0765 131.277 94.7671C127.742 97.4576 125.975 101.183 125.975 105.943C125.975 108.996 126.794 111.661 128.434 113.937C130.125 116.162 132.507 117.895 135.581 119.137C138.706 120.327 142.318 120.922 146.416 120.922Z" fill="white"/>
<path d="M100.003 126.743C94.5722 126.743 89.9613 125.941 86.1701 124.337C82.4303 122.681 79.5358 120.456 77.4864 117.663L76.718 125.269H71.0312V69H77.5632V94.6118C79.5614 91.6109 82.5839 89.2566 86.6314 87.5492C90.7298 85.8417 95.315 84.988 100.387 84.988C105.459 84.988 109.916 85.8676 113.759 87.6268C117.601 89.3342 120.572 91.7661 122.673 94.9223C124.773 98.0267 125.824 101.649 125.824 105.788C125.824 109.772 124.722 113.368 122.519 116.576C120.316 119.784 117.242 122.293 113.298 124.104C109.353 125.863 104.921 126.743 100.003 126.743ZM98.0816 120.922C102.334 120.922 106.022 120.301 109.148 119.059C112.273 117.818 114.681 116.058 116.371 113.782C118.062 111.505 118.908 108.841 118.908 105.788C118.908 102.683 118.088 100.019 116.448 97.7939C114.86 95.569 112.555 93.8616 109.532 92.6715C106.509 91.4297 102.949 90.8088 98.8501 90.8088C94.7517 90.8088 91.0628 91.4039 87.784 92.5939C84.5564 93.784 82.0205 95.4656 80.1762 97.6387C78.3316 99.76 77.4096 102.192 77.4096 104.934V106.642C77.4096 109.384 78.2804 111.867 80.0223 114.092C81.7643 116.266 84.1978 117.947 87.323 119.137C90.4994 120.327 94.0856 120.922 98.0816 120.922Z" fill="white"/>
<path d="M47.6294 126.743C42.7623 126.743 38.382 125.863 34.4884 124.104C30.646 122.293 27.5977 119.81 25.3435 116.654C23.1405 113.446 22.0391 109.875 22.0391 105.943C22.0391 101.855 23.1405 98.2337 25.3435 95.0775C27.5465 91.9213 30.6204 89.4636 34.5653 87.7044C38.5101 85.8934 43.0185 84.988 48.0904 84.988C53.0599 84.988 57.3889 85.7641 61.0778 87.3163C64.8175 88.8168 67.9171 91.1193 70.3763 94.2238V69H76.9082V125.269H70.4531V117.197C68.199 120.353 65.1506 122.733 61.3081 124.337C57.466 125.941 52.9063 126.743 47.6294 126.743ZM49.3969 120.922C53.4441 120.922 57.0562 120.353 60.2322 119.215C63.4601 118.025 65.9705 116.369 67.7636 114.248C69.6079 112.126 70.5299 109.72 70.5299 107.03V105.322C70.5299 102.528 69.5823 100.019 67.6865 97.7939C65.8422 95.569 63.2551 93.8357 59.9251 92.5939C56.5949 91.3521 52.855 90.7312 48.7052 90.7312C42.6086 90.7312 37.7929 92.0765 34.2579 94.7671C30.7229 97.4576 28.9554 101.183 28.9554 105.943C28.9554 108.996 29.7751 111.661 31.4145 113.937C33.1051 116.162 35.4874 117.895 38.5613 119.137C41.6865 120.327 45.2983 120.922 49.3969 120.922Z" fill="white"/>
<path d="M97.9992 110.667C103.601 110.667 108.143 108.268 108.143 105.308C108.143 102.349 103.601 99.9497 97.9992 99.9497C92.397 99.9497 87.8555 102.349 87.8555 105.308C87.8555 108.268 92.397 110.667 97.9992 110.667Z" fill="white"/>
<path d="M48.8428 110.667C54.5312 110.667 59.1426 108.268 59.1426 105.308C59.1426 102.349 54.5312 99.9497 48.8428 99.9497C43.1543 99.9497 38.543 102.349 38.543 105.308C38.543 108.268 43.1543 110.667 48.8428 110.667Z" fill="white"/>
<path d="M146.066 110.667C151.668 110.667 156.209 108.268 156.209 105.308C156.209 102.349 151.668 99.9497 146.066 99.9497C140.463 99.9497 135.922 102.349 135.922 105.308C135.922 108.268 140.463 110.667 146.066 110.667Z" fill="white"/>
</g>
<defs>
<clipPath id="clip0_1074_6743">
<rect width="152" height="58" fill="white" transform="translate(22 69)"/>
</clipPath>
</defs>
</svg>
